<svg width="37" height="37" viewBox="0 0 37 37" fill="none" xmlns="http://www.w3.org/2000/svg">
<path d="M35.8007 2.5661C37.3998 4.16294 37.3998 6.75205 35.8007 8.34889L33.6101 10.5466L26.4544 3.39263L28.6522 1.19779C30.2513 -0.399265 32.8362 -0.399265 34.4352 1.19779L35.8007 2.5661ZM12.5883 17.264L24.8042 5.04423L31.9599 12.1968L19.7367 24.4122C19.2913 24.8649 18.7437 25.2008 18.1376 25.4052L11.6537 27.5665C10.96 27.7709 10.332 27.6103 9.85742 27.0773C9.3901 26.6684 9.22946 25.9747 9.43391 25.3468L11.5952 18.8631C11.7997 18.257 12.1356 17.7094 12.5883 17.264ZM14.0194 4.22354C15.3119 4.22354 16.356 5.33556 16.356 6.56002C16.356 7.9181 15.3119 8.8965 14.0194 8.8965H7.00972C5.71949 8.8965 4.67315 10.0063 4.67315 11.233V29.9906C4.67315 31.2829 5.71949 32.327 7.00972 32.327H25.7023C26.9947 32.327 28.0389 31.2829 28.0389 29.9906V22.9154C28.0389 21.6887 29.083 20.5789 30.3755 20.5789C31.6679 20.5789 32.712 21.6887 32.712 22.9154V29.9906C32.712 33.8604 29.5723 37 25.7023 37H7.00972C3.13831 37 0 33.8604 0 29.9906V11.233C0 7.36319 3.13831 4.22354 7.00972 4.22354H14.0194Z" fill="#373737"/>
</svg>
