<svg width="15" height="4" viewBox="0 0 15 4" fill="none" xmlns="http://www.w3.org/2000/svg">
<path d="M1.75 2.94118C2.16421 2.94118 2.5 2.50663 2.5 1.97059C2.5 1.43455 2.16421 1 1.75 1C1.33579 1 1 1.43455 1 1.97059C1 2.50663 1.33579 2.94118 1.75 2.94118Z" stroke="#373737" stroke-width="1.5" stroke-linecap="round" stroke-linejoin="round"/>
<path d="M7.25 2.94118C7.66421 2.94118 8 2.50663 8 1.97059C8 1.43455 7.66421 1 7.25 1C6.83579 1 6.5 1.43455 6.5 1.97059C6.5 2.50663 6.83579 2.94118 7.25 2.94118Z" stroke="#373737" stroke-width="1.5" stroke-linecap="round" stroke-linejoin="round"/>
<path d="M12.75 2.94118C13.1642 2.94118 13.5 2.50663 13.5 1.97059C13.5 1.43455 13.1642 1 12.75 1C12.3358 1 12 1.43455 12 1.97059C12 2.50663 12.3358 2.94118 12.75 2.94118Z" stroke="#373737" stroke-width="1.5" stroke-linecap="round" stroke-linejoin="round"/>
</svg>
